<svg xmlns="http://www.w3.org/2000/svg" viewBox="0 0 32 32">
  <defs>
    <linearGradient id="favicon-gradient" x1="0%" y1="0%" x2="100%" y2="100%">
      <stop offset="0%" style="stop-color:#4f46e5"/>
      <stop offset="100%" style="stop-color:#7c3aed"/>
    </linearGradient>
  </defs>
  <rect width="32" height="32" rx="6" fill="url(#favicon-gradient)"/>
  <!-- Shopping bag icon -->
  <path d="M10 10.5C10 8.015 12.015 6 14.5 6h3C19.985 6 22 8.015 22 10.5V11h1.5a1.5 1.5 0 011.5 1.5v12a2.5 2.5 0 01-2.5 2.5h-13A2.5 2.5 0 017 24.5v-12A1.5 1.5 0 018.5 11H10v-.5zM12 11h8v-.5c0-1.38-1.12-2.5-2.5-2.5h-3C13.12 8 12 9.12 12 10.5V11z" fill="white"/>
  <!-- Nest/home detail inside bag -->
  <circle cx="16" cy="19" r="3" fill="none" stroke="white" stroke-width="1.5"/>
  <circle cx="16" cy="19" r="1" fill="white"/>
</svg>
