<svg xmlns="http://www.w3.org/2000/svg" width="1200" height="630" viewBox="0 0 1200 630" role="img" aria-label="ShopNest Documentation">
  <defs>
    <linearGradient id="bg" x1="0%" y1="0%" x2="100%" y2="100%">
      <stop offset="0%" stop-color="#1e293b"/>
      <stop offset="100%" stop-color="#0f172a"/>
    </linearGradient>
    <linearGradient id="brand" x1="0%" y1="0%" x2="100%" y2="100%">
      <stop offset="0%" stop-color="#4f46e5"/>
      <stop offset="100%" stop-color="#7c3aed"/>
    </linearGradient>
  </defs>
  <rect width="1200" height="630" fill="url(#bg)"/>
  <rect x="80" y="120" width="120" height="120" rx="26" fill="url(#brand)"/>
  <path d="M116 168c0-11 9-20 20-20h8c11 0 20 9 20 20v5h5c3 0 5 2 5 5v30c0 4-3 7-7 7h-40c-4 0-7-3-7-7v-30c0-3 2-5 5-5h6v-5zm12 5h24v-5c0-6-5-12-12-12h0c-7 0-12 6-12 12v5z" fill="#ffffff"/>
  <text x="232" y="205" font-family="Inter, system-ui, Segoe UI, Roboto, Helvetica, Arial, sans-serif" font-size="74" font-weight="800" fill="#ffffff">ShopNest</text>
  <text x="84" y="340" font-family="Inter, system-ui, Segoe UI, Roboto, Helvetica, Arial, sans-serif" font-size="46" font-weight="700" fill="#e2e8f0">Documentation</text>
  <text x="84" y="404" font-family="Inter, system-ui, Segoe UI, Roboto, Helvetica, Arial, sans-serif" font-size="30" fill="#94a3b8">Product catalog · cart &amp; checkout · orders · loyalty · admin</text>
  <text x="84" y="540" font-family="Inter, system-ui, Segoe UI, Roboto, Helvetica, Arial, sans-serif" font-size="26" fill="#a5b4fc">shopnest-docs.aoneahsan.com</text>
  <rect x="84" y="566" width="1032" height="3" rx="1.5" fill="url(#brand)"/>
</svg>
